<svg width="3626" height="1600" viewBox="0 0 3626 1600" fill="none" xmlns="http://www.w3.org/2000/svg">
<path d="M3104.38 645.626H3008.54C3009.33 662.019 3014.47 676.853 3035.23 698.049C3055.98 719.245 3089 741.155 3128.4 765.512L3090.15 827.401C3049.73 802.414 3012.05 777.338 2984.25 748.953C2978.46 743.041 2972.94 737.862 2967.82 731.406C2963.19 737.871 2957.17 745.062 2951.38 750.974C2923.58 779.36 2885.9 805.446 2845.48 830.432L2807.23 768.544C2846.63 744.187 2879.65 721.266 2900.41 700.07C2921.16 678.874 2926.3 662.019 2927.09 645.626H2831.25V580.953H3104.38V645.626Z" fill="#111111"/>
<path d="M1591.12 572.406C1694.05 572.406 1747.82 638.663 1747.82 715.272V725.623C1747.82 792.484 1707.19 851.456 1628.14 865.382V941.6H1819.63V1006.27H1359.84V941.6H1551.34V865.407C1472.2 851.524 1431.52 792.522 1431.52 725.623V715.272C1431.52 638.663 1485.29 572.406 1588.22 572.406H1591.12ZM1589.67 635.059C1534.15 635.059 1506.81 674.604 1506.81 716.257V724.638C1506.81 766.291 1534.57 805.836 1589.67 805.836C1644.77 805.836 1672.53 766.291 1672.53 724.638V716.257C1672.53 674.604 1645.19 635.059 1589.67 635.059Z" fill="#111111"/>
<path d="M2749.72 1066H2672.92V958.454C2653.11 961.307 2617.84 965.869 2565.9 970.741C2479.8 978.817 2328.44 977.361 2328.44 977.361L2327.21 907.772C2327.21 907.772 2479.21 908.765 2560.38 902.163C2616.98 897.559 2655.06 891.926 2672.92 888.937V554H2749.72V1066ZM2482.9 582.509C2569.76 582.509 2614.84 640.456 2614.84 706.681V717.029C2614.84 783.255 2569.33 841.202 2482.9 841.202C2482.42 841.202 2480.49 841.171 2480.01 841.171C2393.57 841.171 2348.06 783.255 2348.06 717.029V706.681C2348.06 640.456 2393.15 582.509 2480.01 582.509H2482.9ZM2481.45 645.666C2441.85 645.666 2421.83 677.317 2421.83 708.705V715.005C2421.83 749.724 2441.85 777.911 2481.46 778.04C2520.69 778.169 2541.07 749.66 2541.07 715.005V708.705C2541.07 677.317 2520.69 645.666 2481.45 645.666Z" fill="#111111"/>
<path d="M1981.8 655.551H2244.98V719.213H1905V558.102H1981.8V655.551Z" fill="#111111"/>
<path d="M1841.79 809.897H2301.57V746.234H1841.79V809.897Z" fill="#111111"/>
<path d="M3226.15 988.455C3226.09 1049.77 3213.07 1062.25 3151.02 1062.29C3082.18 1062.34 3042.44 1062.36 2973.5 1062.29C2913.18 1062.23 2899.21 1050.24 2898.74 992.669C2898.28 938.313 2898.75 842.204 2898.75 842.127H2975.55V896.022H3150.37V554H3226.16C3226.16 554 3226.33 821.084 3226.15 988.455ZM2975.55 998.631H3150.37V957.664H2975.55V998.631Z" fill="#111111"/>
<path d="M2242.87 836.953L2242.89 981.094H1977.67V1009H2254.29V1069.63C2254.29 1069.63 2085.08 1069.63 1976.66 1069.63C1913.94 1069.63 1901.02 1057.28 1900.87 995.472C1900.82 970.605 1900.87 922.484 1900.87 922.484H2166.07V896.574H1902.92V836.953H2242.87Z" fill="#111111"/>
<path d="M841.459 407.32C814.356 397.56 785.324 397.56 758.22 407.32C707.637 425.532 544.958 532.195 457.883 622C410.918 670.434 399.84 703.937 399.84 762.001C399.84 771.684 399.84 781.687 399.84 791.902C400.58 884.018 405.221 993.684 421.479 1047C449.586 1139.16 491.836 1200 758.841 1200H840.839C1107.84 1200 1150.09 1139.16 1178.2 1047C1194.46 993.684 1199.1 884.018 1199.84 791.897C1199.84 781.682 1199.84 771.684 1199.84 761.996C1199.84 703.932 1188.76 670.428 1141.8 621.995C1054.72 532.2 892.053 425.532 841.459 407.32Z" fill="#00A1FF"/>
</svg>
