<svg width="3627" height="1600" viewBox="0 0 3627 1600" fill="none" xmlns="http://www.w3.org/2000/svg">
<path d="M3104.88 645.626H3009.04C3009.83 662.019 3014.97 676.853 3035.73 698.049C3056.48 719.245 3089.5 741.155 3128.9 765.512L3090.65 827.401C3050.23 802.414 3012.55 777.338 2984.75 748.953C2978.96 743.041 2973.44 737.862 2968.32 731.406C2963.69 737.871 2957.67 745.062 2951.88 750.974C2924.08 779.36 2886.4 805.446 2845.98 830.432L2807.73 768.544C2847.13 744.187 2880.15 721.266 2900.91 700.07C2921.66 678.874 2926.8 662.019 2927.59 645.626H2831.75V580.953H3104.88V645.626Z" fill="black"/>
<path d="M1591.62 572.406C1694.55 572.406 1748.32 638.663 1748.32 715.272V725.623C1748.32 792.484 1707.69 851.456 1628.64 865.382V941.6H1820.13V1006.27H1360.34V941.6H1551.84V865.407C1472.7 851.524 1432.02 792.522 1432.02 725.623V715.272C1432.02 638.663 1485.79 572.406 1588.72 572.406H1591.62ZM1590.17 635.059C1534.65 635.059 1507.31 674.604 1507.31 716.257V724.638C1507.31 766.291 1535.07 805.836 1590.17 805.836C1645.27 805.836 1673.03 766.291 1673.03 724.638V716.257C1673.03 674.604 1645.69 635.059 1590.17 635.059Z" fill="black"/>
<path d="M2750.22 1066H2673.42V958.454C2653.61 961.307 2618.34 965.869 2566.4 970.741C2480.3 978.817 2328.94 977.361 2328.94 977.361L2327.71 907.772C2327.71 907.772 2479.71 908.765 2560.88 902.163C2617.48 897.559 2655.56 891.926 2673.42 888.937V554H2750.22V1066ZM2483.4 582.509C2570.26 582.509 2615.34 640.456 2615.34 706.681V717.029C2615.34 783.255 2569.83 841.202 2483.4 841.202C2482.92 841.202 2480.99 841.171 2480.51 841.171C2394.07 841.171 2348.56 783.255 2348.56 717.029V706.681C2348.56 640.456 2393.65 582.509 2480.51 582.509H2483.4ZM2481.95 645.666C2442.35 645.666 2422.33 677.317 2422.33 708.705V715.005C2422.33 749.724 2442.35 777.911 2481.96 778.04C2521.19 778.169 2541.57 749.66 2541.57 715.005V708.705C2541.57 677.317 2521.19 645.666 2481.95 645.666Z" fill="black"/>
<path d="M1982.3 655.551H2245.48V719.213H1905.5V558.102H1982.3V655.551Z" fill="black"/>
<path d="M1842.29 809.897H2302.07V746.234H1842.29V809.897Z" fill="black"/>
<path d="M3226.65 988.455C3226.59 1049.77 3213.57 1062.25 3151.52 1062.29C3082.68 1062.34 3042.94 1062.36 2974 1062.29C2913.68 1062.23 2899.71 1050.24 2899.24 992.669C2898.78 938.313 2899.25 842.204 2899.25 842.127H2976.05V896.022H3150.87V554H3226.66C3226.66 554 3226.83 821.084 3226.65 988.455ZM2976.05 998.631H3150.87V957.664H2976.05V998.631Z" fill="black"/>
<path d="M2243.37 836.953L2243.39 981.094H1978.17V1009H2254.79V1069.63C2254.79 1069.63 2085.58 1069.63 1977.16 1069.63C1914.44 1069.63 1901.52 1057.28 1901.37 995.472C1901.32 970.605 1901.37 922.484 1901.37 922.484H2166.57V896.574H1903.42V836.953H2243.37Z" fill="black"/>
<path d="M841.959 407.32C814.856 397.56 785.824 397.56 758.72 407.32C708.137 425.532 545.458 532.195 458.383 622C411.418 670.434 400.34 703.937 400.34 762.001C400.34 771.684 400.34 781.687 400.34 791.902C401.08 884.018 405.721 993.684 421.979 1047C450.086 1139.16 492.336 1200 759.341 1200H841.339C1108.34 1200 1150.59 1139.16 1178.7 1047C1194.96 993.684 1199.6 884.018 1200.34 791.897C1200.34 781.682 1200.34 771.684 1200.34 761.996C1200.34 703.932 1189.26 670.428 1142.3 621.995C1055.22 532.2 892.553 425.532 841.959 407.32Z" fill="black"/>
</svg>
