<svg width="1600" height="1600" viewBox="0 0 1600 1600" fill="none" xmlns="http://www.w3.org/2000/svg">
<path d="M841.62 407.32C814.516 397.56 785.484 397.56 758.38 407.32C707.797 425.532 545.118 532.195 458.043 622C411.078 670.434 400 703.937 400 762.001C400 771.684 400 781.687 400 791.902C400.74 884.018 405.381 993.684 421.64 1047C449.746 1139.16 491.996 1200 759.001 1200H840.999C1108 1200 1150.25 1139.16 1178.36 1047C1194.62 993.684 1199.26 884.018 1200 791.897C1200 781.682 1200 771.684 1200 761.996C1200 703.932 1188.92 670.428 1141.96 621.995C1054.88 532.2 892.213 425.532 841.62 407.32Z" fill="#00A1FF"/>
</svg>
