<svg width="1601" height="1600" viewBox="0 0 1601 1600" fill="none" xmlns="http://www.w3.org/2000/svg">
<path d="M842.12 407.32C815.016 397.56 785.984 397.56 758.88 407.32C708.297 425.532 545.618 532.195 458.543 622C411.578 670.434 400.5 703.937 400.5 762.001C400.5 771.684 400.5 781.687 400.5 791.902C401.24 884.018 405.881 993.684 422.14 1047C450.246 1139.16 492.496 1200 759.501 1200H841.499C1108.5 1200 1150.75 1139.16 1178.86 1047C1195.12 993.684 1199.76 884.018 1200.5 791.897C1200.5 781.682 1200.5 771.684 1200.5 761.996C1200.5 703.932 1189.42 670.428 1142.46 621.995C1055.38 532.2 892.713 425.532 842.12 407.32Z" fill="#111111"/>
</svg>
